<svg width="21.000000" height="21.000000" viewBox="0 0 21 21" fill="none" xmlns="http://www.w3.org/2000/svg" xmlns:xlink="http://www.w3.org/1999/xlink">
	<desc>
			Created with Pixso.
	</desc>
	<defs/>
	<path id="Vector" d="M6.47 16.52C6.47 16.61 6.37 16.68 6.24 16.68C6.1 16.69 6 16.62 6 16.52C6 16.43 6.1 16.37 6.23 16.37C6.36 16.35 6.47 16.42 6.47 16.52ZM5.13 16.33C5.1 16.41 5.19 16.51 5.32 16.54C5.43 16.58 5.56 16.54 5.58 16.45C5.61 16.37 5.53 16.27 5.4 16.23C5.29 16.2 5.16 16.24 5.13 16.33ZM7.03 16.25C6.91 16.28 6.82 16.37 6.83 16.46C6.85 16.55 6.96 16.61 7.09 16.58C7.21 16.55 7.3 16.46 7.28 16.38C7.27 16.3 7.15 16.24 7.03 16.25ZM9.86 -0.21C3.9 -0.21 -0.66 4.31 -0.66 10.27C-0.66 15.04 2.34 19.12 6.62 20.55C7.17 20.65 7.37 20.31 7.37 20.03C7.37 19.76 7.35 18.3 7.35 17.39C7.35 17.39 4.34 18.04 3.71 16.11C3.71 16.11 3.22 14.86 2.52 14.54C2.52 14.54 1.53 13.87 2.59 13.88C2.59 13.88 3.66 13.96 4.25 14.99C5.19 16.65 6.76 16.17 7.38 15.88C7.48 15.2 7.76 14.72 8.07 14.44C5.66 14.17 3.24 13.82 3.24 9.69C3.24 8.51 3.57 7.91 4.25 7.16C4.14 6.88 3.78 5.73 4.37 4.24C5.26 3.96 7.33 5.4 7.33 5.4C8.19 5.16 9.11 5.04 10.03 5.04C10.94 5.04 11.87 5.16 12.73 5.4C12.73 5.4 14.79 3.96 15.69 4.24C16.28 5.73 15.92 6.88 15.8 7.16C16.49 7.92 16.91 8.51 16.91 9.69C16.91 13.84 14.38 14.17 11.98 14.44C12.38 14.78 12.71 15.42 12.71 16.43C12.71 17.88 12.7 19.67 12.7 20.02C12.7 20.3 12.9 20.64 13.44 20.54C17.74 19.12 20.65 15.04 20.65 10.27C20.65 4.31 15.82 -0.21 9.86 -0.21ZM3.52 14.61C3.46 14.65 3.47 14.75 3.55 14.83C3.61 14.9 3.71 14.93 3.77 14.88C3.82 14.83 3.81 14.73 3.74 14.65C3.67 14.58 3.57 14.55 3.52 14.61ZM3.05 14.26C3.02 14.32 3.06 14.39 3.15 14.43C3.22 14.47 3.3 14.46 3.33 14.4C3.36 14.34 3.32 14.27 3.24 14.23C3.15 14.2 3.08 14.22 3.05 14.26ZM4.44 15.79C4.37 15.85 4.4 15.98 4.5 16.06C4.6 16.16 4.72 16.17 4.78 16.1C4.83 16.04 4.81 15.91 4.72 15.83C4.63 15.73 4.5 15.72 4.44 15.79ZM3.95 15.16C3.88 15.2 3.88 15.31 3.95 15.41C4.02 15.51 4.14 15.55 4.19 15.51C4.26 15.46 4.26 15.34 4.19 15.24C4.13 15.15 4.02 15.1 3.95 15.16Z" fill="#3F3F3F" fill-opacity="1.000000" fill-rule="nonzero"/>
	<path id="Vector" d="M6.24 16.68C6.1 16.69 6 16.62 6 16.52C6 16.43 6.1 16.37 6.23 16.37C6.36 16.35 6.47 16.42 6.47 16.52C6.47 16.61 6.37 16.68 6.24 16.68ZM5.32 16.54C5.43 16.58 5.56 16.54 5.58 16.45C5.61 16.37 5.53 16.27 5.4 16.23C5.29 16.2 5.16 16.24 5.13 16.33C5.1 16.41 5.19 16.51 5.32 16.54ZM6.83 16.46C6.85 16.55 6.96 16.61 7.09 16.58C7.21 16.55 7.3 16.46 7.28 16.38C7.27 16.3 7.15 16.24 7.03 16.25C6.91 16.28 6.82 16.37 6.83 16.46ZM-0.66 10.27C-0.66 15.04 2.34 19.12 6.62 20.55C7.17 20.65 7.37 20.31 7.37 20.03C7.37 19.76 7.35 18.3 7.35 17.39C7.35 17.39 4.34 18.04 3.71 16.11C3.71 16.11 3.22 14.86 2.52 14.54C2.52 14.54 1.53 13.87 2.59 13.88C2.59 13.88 3.66 13.96 4.25 14.99C5.19 16.65 6.76 16.17 7.38 15.88C7.48 15.2 7.76 14.72 8.07 14.44C5.66 14.17 3.24 13.82 3.24 9.69C3.24 8.51 3.57 7.91 4.25 7.16C4.14 6.88 3.78 5.73 4.37 4.24C5.26 3.96 7.33 5.4 7.33 5.4C8.19 5.16 9.11 5.04 10.03 5.04C10.94 5.04 11.87 5.16 12.73 5.4C12.73 5.4 14.79 3.96 15.69 4.24C16.28 5.73 15.92 6.88 15.8 7.16C16.49 7.92 16.91 8.51 16.91 9.69C16.91 13.84 14.38 14.17 11.98 14.44C12.38 14.78 12.71 15.42 12.71 16.43C12.71 17.88 12.7 19.67 12.7 20.02C12.7 20.3 12.9 20.64 13.44 20.54C17.74 19.12 20.65 15.04 20.65 10.27C20.65 4.31 15.82 -0.21 9.86 -0.21C3.9 -0.21 -0.66 4.31 -0.66 10.27ZM3.55 14.83C3.61 14.9 3.71 14.93 3.77 14.88C3.82 14.83 3.81 14.73 3.74 14.65C3.67 14.58 3.57 14.55 3.52 14.61C3.46 14.65 3.47 14.75 3.55 14.83ZM3.15 14.43C3.22 14.47 3.3 14.46 3.33 14.4C3.36 14.34 3.32 14.27 3.24 14.23C3.15 14.2 3.08 14.22 3.05 14.26C3.02 14.32 3.06 14.39 3.15 14.43ZM4.5 16.06C4.6 16.16 4.72 16.17 4.78 16.1C4.83 16.04 4.81 15.91 4.72 15.83C4.63 15.73 4.5 15.72 4.44 15.79C4.37 15.85 4.4 15.98 4.5 16.06ZM3.95 15.41C4.02 15.51 4.14 15.55 4.19 15.51C4.26 15.46 4.26 15.34 4.19 15.24C4.13 15.15 4.02 15.1 3.95 15.16C3.88 15.2 3.88 15.31 3.95 15.41Z" stroke="#3F3F3F" stroke-opacity="1.000000" stroke-width="0.000000"/>
</svg>
