<svg width="22.000000" height="22.000000" viewBox="0 0 22 22" fill="none" xmlns="http://www.w3.org/2000/svg" xmlns:xlink="http://www.w3.org/1999/xlink">
	<desc>
			Created with Pixso.
	</desc>
	<defs>
		<clipPath id="clip1_61">
			<rect id="Item → Link → SVG" width="22.000000" height="22.000000" transform="translate(0.000000 -0.550049)" fill="white" fill-opacity="0"/>
		</clipPath>
	</defs>
	<g clip-path="url(#clip1_61)">
		<path id="Vector" d="M19.25 0.82L2.74 0.82C1.98 0.82 1.37 1.44 1.37 2.21L1.37 18.68C1.37 19.45 1.98 20.07 2.74 20.07L19.25 20.07C20 20.07 20.62 19.45 20.62 18.68L20.62 2.21C20.62 1.44 20 0.82 19.25 0.82ZM7.19 17.32L4.33 17.32L4.33 8.13L7.19 8.13L7.19 17.32L7.19 17.32ZM5.76 6.88C4.85 6.88 4.11 6.14 4.11 5.22C4.11 4.31 4.85 3.57 5.76 3.57C6.67 3.57 7.42 4.31 7.42 5.22C7.42 6.14 6.68 6.88 5.76 6.88ZM17.88 17.32L15.03 17.32L15.03 12.85C15.03 11.79 15.01 10.41 13.55 10.41C12.06 10.41 11.83 11.58 11.83 12.77L11.83 17.32L8.98 17.32L8.98 8.13L11.72 8.13L11.72 9.39L11.76 9.39C12.14 8.67 13.07 7.91 14.46 7.91C17.35 7.91 17.88 9.81 17.88 12.28L17.88 17.32Z" fill="#3F3F3F" fill-opacity="1.000000" fill-rule="nonzero"/>
		<path id="Vector" d="M2.74 0.82C1.98 0.82 1.37 1.44 1.37 2.21L1.37 18.68C1.37 19.45 1.98 20.07 2.74 20.07L19.25 20.07C20 20.07 20.62 19.45 20.62 18.68L20.62 2.21C20.62 1.44 20 0.82 19.25 0.82L2.74 0.82ZM4.33 17.32L4.33 8.13L7.19 8.13L7.19 17.32L7.19 17.32L4.33 17.32ZM4.11 5.22C4.11 4.31 4.85 3.57 5.76 3.57C6.67 3.57 7.42 4.31 7.42 5.22C7.42 6.14 6.68 6.88 5.76 6.88C4.85 6.88 4.11 6.14 4.11 5.22ZM15.03 17.32L15.03 12.85C15.03 11.79 15.01 10.41 13.55 10.41C12.06 10.41 11.83 11.58 11.83 12.77L11.83 17.32L8.98 17.32L8.98 8.13L11.72 8.13L11.72 9.39L11.76 9.39C12.14 8.67 13.07 7.91 14.46 7.91C17.35 7.91 17.88 9.81 17.88 12.28L17.88 17.32L15.03 17.32Z" stroke="#3F3F3F" stroke-opacity="1.000000" stroke-width="0.000000"/>
	</g>
</svg>
