<svg width="22.000000" height="22.000000" viewBox="0 0 22 22" fill="none" xmlns="http://www.w3.org/2000/svg" xmlns:xlink="http://www.w3.org/1999/xlink">
	<desc>
			Created with Pixso.
	</desc>
	<defs>
		<clipPath id="clip1_63">
			<rect id="Item → Link → SVG" width="22.000000" height="22.000000" transform="translate(0.000000 -0.550049)" fill="white" fill-opacity="0"/>
		</clipPath>
	</defs>
	<g clip-path="url(#clip1_63)">
		<path id="Vector" d="M11 -0.21C5.11 -0.21 0.34 4.56 0.34 10.45C0.34 16.33 5.11 21.1 11 21.1C16.88 21.1 21.65 16.33 21.65 10.45C21.65 4.56 16.88 -0.21 11 -0.21ZM16.23 7.09L14.48 15.33C14.35 15.91 14 16.06 13.52 15.78L10.85 13.82L9.57 15.06C9.43 15.2 9.31 15.32 9.03 15.32L9.22 12.61L14.16 8.15C14.37 7.96 14.11 7.85 13.83 8.04L7.73 11.88L5.1 11.06C4.52 10.88 4.51 10.49 5.22 10.21L15.49 6.25C15.97 6.08 16.38 6.37 16.23 7.09Z" fill="#3F3F3F" fill-opacity="1.000000" fill-rule="nonzero"/>
		<path id="Vector" d="M0.34 10.45C0.34 16.33 5.11 21.1 11 21.1C16.88 21.1 21.65 16.33 21.65 10.45C21.65 4.56 16.88 -0.21 11 -0.21C5.11 -0.21 0.34 4.56 0.34 10.45ZM14.48 15.33C14.35 15.91 14 16.06 13.52 15.78L10.85 13.82L9.57 15.06C9.43 15.2 9.31 15.32 9.03 15.32L9.22 12.61L14.16 8.15C14.37 7.96 14.11 7.85 13.83 8.04L7.73 11.88L5.1 11.06C4.52 10.88 4.51 10.49 5.22 10.21L15.49 6.25C15.97 6.08 16.38 6.37 16.23 7.09L14.48 15.33Z" stroke="#3F3F3F" stroke-opacity="1.000000" stroke-width="0.000000"/>
	</g>
</svg>
